<?xml version="1.0" encoding="utf-8"?>
<!-- Generator: Adobe Illustrator 25.2.3, SVG Export Plug-In . SVG Version: 6.00 Build 0)  -->
<svg version="1.1" id="Layer_1" xmlns="http://www.w3.org/2000/svg" xmlns:xlink="http://www.w3.org/1999/xlink" x="0px" y="0px"
	 viewBox="0 0 301.39 275.22" style="enable-background:new 0 0 301.39 275.22;" xml:space="preserve">
<style type="text/css">
	.st0{fill:#0080FF;}
</style>
<g>
	<g>
		<path class="st0" d="M33.3,234.11c0-9.79,6.3-15.53,13.81-15.53c3.85,0,6.78,1.77,8.71,3.81l-3.13,3.77
			c-1.49-1.44-3.21-2.49-5.46-2.49c-4.5,0-7.87,3.85-7.87,10.23c0,6.46,3.05,10.35,7.74,10.35c2.57,0,4.53-1.2,6.14-2.93l3.13,3.69
			c-2.45,2.93-5.58,4.37-9.47,4.37C39.36,249.4,33.3,244.02,33.3,234.11z"/>
		<path class="st0" d="M67.09,243.86h12.04v4.98H61.15v-29.7h5.94V243.86z"/>
		<path class="st0" d="M82.58,235.47v-16.33h5.94v16.85c0,6.22,2.09,8.27,5.62,8.27c3.53,0,5.78-2.05,5.78-8.27v-16.85h5.7v16.33
			c0,9.87-4.21,13.93-11.48,13.93C86.92,249.4,82.58,245.34,82.58,235.47z"/>
		<path class="st0" d="M133.34,226.44c0,2.65-1.52,5.58-4.05,6.42v0.2c3.21,0.76,5.58,3.01,5.58,7.02c0,5.98-4.98,8.75-11.52,8.75
			h-10.59v-29.7h9.83C128.69,219.14,133.34,220.86,133.34,226.44z M127.57,227.33c0-2.61-1.77-3.65-5.34-3.65h-3.53v7.54h3.45
			C126,231.22,127.57,229.73,127.57,227.33z M129.09,239.73c0-2.89-2.09-4.09-6.26-4.09h-4.13v8.63h4.13
			C126.88,244.26,129.09,242.82,129.09,239.73z"/>
		<path class="st0" d="M147.71,234.11c0-9.79,6.3-15.53,13.8-15.53c3.85,0,6.78,1.77,8.71,3.81l-3.13,3.77
			c-1.48-1.44-3.21-2.49-5.46-2.49c-4.49,0-7.87,3.85-7.87,10.23c0,6.46,3.05,10.35,7.74,10.35c2.57,0,4.53-1.2,6.14-2.93l3.13,3.69
			c-2.45,2.93-5.58,4.37-9.47,4.37C153.77,249.4,147.71,244.02,147.71,234.11z"/>
		<path class="st0" d="M181.5,230.82h11.24v-11.68h5.9v29.7h-5.9v-12.84H181.5v12.84h-5.94v-29.7h5.94V230.82z"/>
		<path class="st0" d="M208.14,248.84h-6.02l9.51-29.7h6.98l9.55,29.7h-6.22l-2.09-7.62h-9.63L208.14,248.84z M215.08,223.63h-0.16
			c-0.76,3.25-1.61,6.62-2.53,9.71l-0.88,3.25h7.06l-0.88-3.25C216.77,230.26,216.01,226.84,215.08,223.63z"/>
		<path class="st0" d="M237.6,248.84h-5.94v-29.7h5.94V248.84z"/>
		<path class="st0" d="M259.59,234.95l2.97,6.42h0.2c-0.32-3.09-0.76-7.02-0.76-10.39v-11.84h5.62v29.7h-6.02l-8.59-15.89
			l-3.01-6.38h-0.2c0.28,3.21,0.72,6.94,0.72,10.35v11.92h-5.62v-29.7h6.06L259.59,234.95z"/>
	</g>
	<g>
		<path class="st0" d="M140.48,186.72c-5.29-4.47-14.55-13.08-19.85-22.59c-0.14-0.25-0.43-0.36-0.7-0.27
			c-0.55,0.18-1.11,0.35-1.67,0.51c-0.82,0.22-1.64,0.42-2.48,0.6c-0.24,0.05-0.48,0.1-0.72,0.15c-0.63,0.12-1.26,0.24-1.89,0.33
			c-0.25,0.04-0.5,0.08-0.76,0.12c-0.85,0.12-1.7,0.22-2.57,0.3c-0.45,0.06-0.88,0.12-1.31,0.17c-0.56,0.07-1.09,0.12-1.61,0.16
			c-0.13,0.01-0.25,0.02-0.38,0.03c-0.5,0.03-0.98,0.06-1.42,0.06c-4.26,0-8.4-0.61-12.35-1.76c-0.89-0.26-1.77-0.55-2.63-0.87
			c-0.26-0.09-0.51-0.19-0.77-0.29c-0.64-0.24-1.27-0.5-1.9-0.77c-0.25-0.11-0.5-0.21-0.75-0.33c-0.84-0.38-1.67-0.78-2.49-1.21
			c-1.04-0.55-2.05-1.14-3.05-1.77c-0.31-0.2-0.61-0.4-0.92-0.61c-0.69-0.45-1.37-0.92-2.03-1.41c-0.33-0.24-0.66-0.49-0.99-0.75
			c-0.66-0.51-1.3-1.03-1.93-1.57c-0.28-0.24-0.57-0.47-0.84-0.72c-0.89-0.79-1.76-1.61-2.6-2.47c-0.73-0.75-1.45-1.53-2.14-2.33
			c-1.38-1.6-2.68-3.29-3.89-5.06c-0.6-0.89-1.18-1.8-1.74-2.72c-1.37-2.22-2.6-4.56-3.67-7c-0.54-1.22-1.03-2.46-1.49-3.73
			c-0.91-2.53-1.66-5.15-2.23-7.85s-0.96-5.47-1.16-8.3c-0.1-1.42-0.15-2.85-0.15-4.29c0-2.93,0.21-5.8,0.6-8.61
			c0.4-2.8,0.99-5.54,1.75-8.19c0.76-2.65,1.7-5.21,2.8-7.67c1.1-2.46,2.36-4.82,3.77-7.06c8.93-14.63,23.87-24.25,40.78-24.25
			c2.85,0,5.68,0.3,8.46,0.86c15.54,2.61,28.75,13.01,36.23,27.47c0.25,0.49,0.93,0.49,1.19,0c4.29-8.29,10.48-15.22,17.9-20.13
			c0.35-0.23,0.7-0.47,1.05-0.71c0.14-0.09,0.22-0.22,0.28-0.36c0.09-0.22,0.09-0.48-0.05-0.7c-4.71-7.15-10.51-13.4-17.11-18.6
			c-0.62-0.49-1.23-0.97-1.86-1.44c-13.1-9.69-29.13-15.25-46.08-15.25c-43.19,0-78.33,37.97-78.33,84.64
			c0,46.67,35.14,84.65,78.33,84.65c0.81,0,1.63-0.01,2.46-0.04c0,0,0,0,0,0c0.24-0.01,0.48-0.02,0.72-0.03
			c0.58-0.02,1.17-0.05,1.76-0.08c0.52-0.03,1.04-0.08,1.56-0.12c0.31-0.03,0.62-0.04,0.94-0.07c0.01,0,0.01,0,0.02,0
			c0.03,0,0.06-0.01,0.09-0.01c1.09-0.1,2.18-0.23,3.27-0.38c0.29-0.04,0.58-0.08,0.87-0.12c1.11-0.16,2.22-0.33,3.33-0.54
			c0.01,0,0.03,0,0.04-0.01c0.03-0.01,0.07-0.02,0.1-0.02c1.64-0.3,3.27-0.65,4.89-1.04c0.06-0.02,0.12-0.03,0.18-0.05
			c1.6-0.39,3.18-0.83,4.73-1.3c0.02-0.01,0.04-0.01,0.07-0.02c0.81-0.25,1.61-0.51,2.41-0.78c0.06-0.02,0.12-0.05,0.18-0.07
			c1.5-0.52,2.96-1.07,4.39-1.67c0.03-0.01,0.06-0.02,0.08-0.03c0.13-0.05,0.25-0.11,0.37-0.17c0.83-0.35,1.64-0.72,2.44-1.1
			c0.1-0.05,0.21-0.1,0.31-0.15c0.01,0,0.01-0.01,0.02-0.01c0.12-0.06,0.2-0.18,0.2-0.32C140.59,186.87,140.55,186.79,140.48,186.72
			C140.48,186.72,140.48,186.72,140.48,186.72z"/>
		<path class="st0" d="M160.43,34.23c5.29,4.47,14.55,13.08,19.85,22.59c0.14,0.25,0.43,0.36,0.7,0.27
			c0.55-0.18,1.11-0.35,1.67-0.51c0.82-0.22,1.64-0.42,2.48-0.6c0.24-0.05,0.48-0.1,0.72-0.15c0.63-0.12,1.26-0.24,1.89-0.33
			c0.25-0.04,0.5-0.08,0.76-0.12c0.85-0.12,1.7-0.22,2.57-0.3c0.45-0.06,0.88-0.12,1.31-0.17c0.56-0.07,1.09-0.12,1.61-0.16
			c0.13-0.01,0.25-0.02,0.38-0.03c0.5-0.03,0.98-0.06,1.42-0.06c4.26,0,8.4,0.61,12.35,1.76c0.89,0.26,1.77,0.55,2.63,0.87
			c0.26,0.09,0.51,0.19,0.77,0.29c0.64,0.24,1.27,0.5,1.9,0.77c0.25,0.11,0.5,0.21,0.75,0.33c0.84,0.38,1.67,0.78,2.49,1.21
			c1.04,0.55,2.05,1.14,3.05,1.77c0.31,0.2,0.61,0.4,0.92,0.61c0.69,0.45,1.37,0.92,2.03,1.41c0.33,0.24,0.66,0.49,0.99,0.75
			c0.66,0.51,1.3,1.03,1.93,1.57c0.28,0.24,0.57,0.47,0.84,0.72c0.89,0.79,1.76,1.61,2.6,2.47c0.73,0.75,1.45,1.53,2.14,2.33
			c1.38,1.6,2.68,3.29,3.89,5.06c0.6,0.89,1.18,1.8,1.74,2.72c1.37,2.22,2.6,4.56,3.67,7c0.54,1.22,1.03,2.46,1.49,3.73
			c0.91,2.53,1.66,5.15,2.23,7.85s0.96,5.47,1.16,8.3c0.1,1.42,0.15,2.85,0.15,4.29c0,2.93-0.21,5.8-0.6,8.61
			c-0.4,2.8-0.99,5.54-1.75,8.19c-0.76,2.65-1.7,5.21-2.8,7.67c-1.1,2.46-2.36,4.82-3.77,7.06c-8.93,14.63-23.87,24.25-40.78,24.25
			c-2.85,0-5.68-0.3-8.46-0.86c-15.54-2.61-28.75-13.01-36.23-27.47c-0.25-0.49-0.93-0.49-1.19,0c-4.29,8.29-10.48,15.22-17.9,20.13
			c-0.35,0.23-0.7,0.47-1.05,0.71c-0.14,0.09-0.22,0.22-0.28,0.36c-0.09,0.22-0.09,0.48,0.05,0.7c4.71,7.15,10.51,13.4,17.11,18.6
			c0.62,0.49,1.23,0.97,1.86,1.44c13.1,9.69,29.13,15.25,46.08,15.25c43.19,0,78.33-37.97,78.33-84.64
			c0-46.67-35.14-84.65-78.33-84.65c-0.81,0-1.63,0.01-2.46,0.04c0,0,0,0,0,0c-0.24,0.01-0.48,0.02-0.72,0.03
			c-0.58,0.02-1.17,0.05-1.76,0.08c-0.52,0.03-1.04,0.08-1.56,0.12c-0.31,0.03-0.62,0.04-0.94,0.07c-0.01,0-0.01,0-0.02,0
			c-0.03,0-0.06,0.01-0.09,0.01c-1.09,0.1-2.18,0.23-3.27,0.38c-0.29,0.04-0.58,0.08-0.87,0.12c-1.11,0.16-2.22,0.33-3.33,0.54
			c-0.01,0-0.03,0-0.04,0.01c-0.03,0.01-0.07,0.02-0.1,0.02c-1.64,0.3-3.27,0.65-4.89,1.04c-0.06,0.02-0.12,0.03-0.18,0.05
			c-1.6,0.39-3.18,0.83-4.73,1.3c-0.02,0.01-0.04,0.01-0.07,0.02c-0.81,0.25-1.61,0.51-2.41,0.78c-0.06,0.02-0.12,0.05-0.18,0.07
			c-1.5,0.52-2.96,1.07-4.39,1.67c-0.03,0.01-0.06,0.02-0.08,0.03c-0.13,0.05-0.25,0.11-0.37,0.17c-0.83,0.35-1.64,0.72-2.44,1.1
			c-0.1,0.05-0.21,0.1-0.31,0.15c-0.01,0-0.01,0.01-0.02,0.01c-0.12,0.06-0.2,0.18-0.2,0.32C160.32,34.07,160.36,34.16,160.43,34.23
			C160.42,34.22,160.43,34.22,160.43,34.23z"/>
	</g>
</g>
</svg>
