<?xml version="1.0" encoding="utf-8"?>
<!-- Generator: Adobe Illustrator 25.2.3, SVG Export Plug-In . SVG Version: 6.00 Build 0)  -->
<svg version="1.1" id="Layer_1" xmlns="http://www.w3.org/2000/svg" xmlns:xlink="http://www.w3.org/1999/xlink" x="0px" y="0px"
	 viewBox="0 0 301.4 215.9" style="enable-background:new 0 0 301.4 215.9;" xml:space="preserve">
<style type="text/css">
	.st0{fill:#0080FF;}
</style>
<g>
	<g>
		<path class="st0" d="M140.5,186.7c-5.3-4.5-14.6-13.1-19.8-22.6c-0.1-0.2-0.4-0.4-0.7-0.3c-0.6,0.2-1.1,0.4-1.7,0.5
			c-0.8,0.2-1.6,0.4-2.5,0.6c-0.2,0.1-0.5,0.1-0.7,0.1c-0.6,0.1-1.3,0.2-1.9,0.3c-0.2,0-0.5,0.1-0.8,0.1c-0.8,0.1-1.7,0.2-2.6,0.3
			c-0.4,0.1-0.9,0.1-1.3,0.2c-0.6,0.1-1.1,0.1-1.6,0.2c-0.1,0-0.2,0-0.4,0c-0.5,0-1,0.1-1.4,0.1c-4.3,0-8.4-0.6-12.3-1.8
			c-0.9-0.3-1.8-0.6-2.6-0.9c-0.3-0.1-0.5-0.2-0.8-0.3c-0.6-0.2-1.3-0.5-1.9-0.8c-0.2-0.1-0.5-0.2-0.8-0.3c-0.8-0.4-1.7-0.8-2.5-1.2
			c-1-0.6-2.1-1.1-3.1-1.8c-0.3-0.2-0.6-0.4-0.9-0.6c-0.7-0.4-1.4-0.9-2-1.4c-0.3-0.2-0.7-0.5-1-0.8c-0.7-0.5-1.3-1-1.9-1.6
			c-0.3-0.2-0.6-0.5-0.8-0.7c-0.9-0.8-1.8-1.6-2.6-2.5c-0.7-0.8-1.4-1.5-2.1-2.3c-1.4-1.6-2.7-3.3-3.9-5.1c-0.6-0.9-1.2-1.8-1.7-2.7
			c-1.4-2.2-2.6-4.6-3.7-7c-0.5-1.2-1-2.5-1.5-3.7c-0.9-2.5-1.7-5.2-2.2-7.8s-1-5.5-1.2-8.3c-0.1-1.4-0.2-2.8-0.2-4.3
			c0-2.9,0.2-5.8,0.6-8.6c0.4-2.8,1-5.5,1.8-8.2s1.7-5.2,2.8-7.7s2.4-4.8,3.8-7.1c8.9-14.6,23.9-24.2,40.8-24.2
			c2.8,0,5.7,0.3,8.5,0.9c15.5,2.6,28.8,13,36.2,27.5c0.2,0.5,0.9,0.5,1.2,0c4.3-8.3,10.5-15.2,17.9-20.1c0.4-0.2,0.7-0.5,1.1-0.7
			c0.1-0.1,0.2-0.2,0.3-0.4c0.1-0.2,0.1-0.5-0.1-0.7c-4.7-7.2-10.5-13.4-17.1-18.6c-0.6-0.5-1.2-1-1.9-1.4
			c-13.1-9.7-29.1-15.2-46.1-15.2c-43.2,0-78.3,38-78.3,84.6s35.1,84.6,78.3,84.6c0.8,0,1.6,0,2.5,0l0,0c0.2,0,0.5,0,0.7,0
			c0.6,0,1.2-0.1,1.8-0.1c0.5,0,1-0.1,1.6-0.1c0.3,0,0.6,0,0.9-0.1c0,0,0,0,0,0c0,0,0.1,0,0.1,0c1.1-0.1,2.2-0.2,3.3-0.4
			c0.3,0,0.6-0.1,0.9-0.1c1.1-0.2,2.2-0.3,3.3-0.5c0,0,0,0,0,0c0,0,0.1,0,0.1,0c1.6-0.3,3.3-0.6,4.9-1c0.1,0,0.1,0,0.2-0.1
			c1.6-0.4,3.2-0.8,4.7-1.3c0,0,0,0,0.1,0c0.8-0.2,1.6-0.5,2.4-0.8c0.1,0,0.1-0.1,0.2-0.1c1.5-0.5,3-1.1,4.4-1.7c0,0,0.1,0,0.1,0
			c0.1-0.1,0.2-0.1,0.4-0.2c0.8-0.4,1.6-0.7,2.4-1.1c0.1-0.1,0.2-0.1,0.3-0.1c0,0,0,0,0,0c0.1-0.1,0.2-0.2,0.2-0.3
			C140.6,186.9,140.6,186.8,140.5,186.7L140.5,186.7z"/>
		<path class="st0" d="M160.4,34.2c5.3,4.5,14.6,13.1,19.9,22.6c0.1,0.2,0.4,0.4,0.7,0.3c0.6-0.2,1.1-0.3,1.7-0.5
			c0.8-0.2,1.6-0.4,2.5-0.6c0.2,0,0.5-0.1,0.7-0.2c0.6-0.1,1.3-0.2,1.9-0.3c0.2,0,0.5-0.1,0.8-0.1c0.9-0.1,1.7-0.2,2.6-0.3
			c0.4-0.1,0.9-0.1,1.3-0.2c0.6-0.1,1.1-0.1,1.6-0.2c0.1,0,0.2,0,0.4,0c0.5,0,1-0.1,1.4-0.1c4.3,0,8.4,0.6,12.4,1.8
			c0.9,0.3,1.8,0.5,2.6,0.9c0.3,0.1,0.5,0.2,0.8,0.3c0.6,0.2,1.3,0.5,1.9,0.8c0.2,0.1,0.5,0.2,0.8,0.3c0.8,0.4,1.7,0.8,2.5,1.2
			c1,0.5,2.1,1.1,3.1,1.8c0.3,0.2,0.6,0.4,0.9,0.6c0.7,0.5,1.4,0.9,2,1.4c0.3,0.2,0.7,0.5,1,0.8c0.7,0.5,1.3,1,1.9,1.6
			c0.3,0.2,0.6,0.5,0.8,0.7c0.9,0.8,1.8,1.6,2.6,2.5c0.7,0.8,1.4,1.5,2.1,2.3c1.4,1.6,2.7,3.3,3.9,5.1c0.6,0.9,1.2,1.8,1.7,2.7
			c1.4,2.2,2.6,4.6,3.7,7c0.5,1.2,1,2.5,1.5,3.7c0.9,2.5,1.7,5.2,2.2,7.8s1,5.5,1.2,8.3c0.1,1.4,0.1,2.8,0.1,4.3
			c0,2.9-0.2,5.8-0.6,8.6c-0.4,2.8-1,5.5-1.8,8.2c-0.8,2.6-1.7,5.2-2.8,7.7c-1.1,2.5-2.4,4.8-3.8,7.1c-8.9,14.6-23.9,24.2-40.8,24.2
			c-2.9,0-5.7-0.3-8.5-0.9c-15.5-2.6-28.8-13-36.2-27.5c-0.2-0.5-0.9-0.5-1.2,0c-4.3,8.3-10.5,15.2-17.9,20.1
			c-0.4,0.2-0.7,0.5-1.1,0.7c-0.1,0.1-0.2,0.2-0.3,0.4c-0.1,0.2-0.1,0.5,0.1,0.7c4.7,7.1,10.5,13.4,17.1,18.6c0.6,0.5,1.2,1,1.9,1.4
			c13.1,9.7,29.1,15.2,46.1,15.2c43.2,0,78.3-38,78.3-84.6S239,25.8,195.8,25.8c-0.8,0-1.6,0-2.5,0l0,0c-0.2,0-0.5,0-0.7,0
			c-0.6,0-1.2,0-1.8,0.1c-0.5,0-1,0.1-1.6,0.1c-0.3,0-0.6,0-0.9,0.1c0,0,0,0,0,0c0,0-0.1,0-0.1,0c-1.1,0.1-2.2,0.2-3.3,0.4
			c-0.3,0-0.6,0.1-0.9,0.1c-1.1,0.2-2.2,0.3-3.3,0.5c0,0,0,0,0,0c0,0-0.1,0-0.1,0c-1.6,0.3-3.3,0.6-4.9,1c-0.1,0-0.1,0-0.2,0
			c-1.6,0.4-3.2,0.8-4.7,1.3c0,0,0,0-0.1,0c-0.8,0.2-1.6,0.5-2.4,0.8c-0.1,0-0.1,0-0.2,0.1c-1.5,0.5-3,1.1-4.4,1.7c0,0-0.1,0-0.1,0
			c-0.1,0-0.2,0.1-0.4,0.2c-0.8,0.3-1.6,0.7-2.4,1.1c-0.1,0-0.2,0.1-0.3,0.2c0,0,0,0,0,0c-0.1,0.1-0.2,0.2-0.2,0.3
			C160.3,34.1,160.4,34.2,160.4,34.2C160.4,34.2,160.4,34.2,160.4,34.2z"/>
	</g>
</g>
</svg>
