<?xml version="1.0" encoding="utf-8"?>
<!-- Generator: Adobe Illustrator 25.2.3, SVG Export Plug-In . SVG Version: 6.00 Build 0)  -->
<svg version="1.1" id="Layer_1" xmlns="http://www.w3.org/2000/svg" xmlns:xlink="http://www.w3.org/1999/xlink" x="0px" y="0px"
	 viewBox="0 0 252.6 53.9" style="enable-background:new 0 0 252.6 53.9;" xml:space="preserve">
<style type="text/css">
	.st0{fill:#0080FF;}
</style>
<g>
	<g>
		<path class="st0" d="M9.1,27.1c0-9.8,6.3-15.5,13.8-15.5c3.8,0,6.8,1.8,8.7,3.8l-3.1,3.8c-1.5-1.4-3.2-2.5-5.5-2.5
			c-4.5,0-7.9,3.9-7.9,10.2c0,6.5,3,10.4,7.7,10.4c2.6,0,4.5-1.2,6.1-2.9l3.1,3.7c-2.5,2.9-5.6,4.4-9.5,4.4
			C15.2,42.4,9.1,37,9.1,27.1z"/>
		<path class="st0" d="M42.9,36.8h12v5H37V12.1h5.9C42.9,12.1,42.9,36.8,42.9,36.8z"/>
		<path class="st0" d="M58.4,28.4V12.1h5.9v16.9c0,6.2,2.1,8.3,5.6,8.3c3.5,0,5.8-2.1,5.8-8.3V12.1h5.7v16.3
			c0,9.9-4.2,13.9-11.5,13.9C62.8,42.4,58.4,38.3,58.4,28.4z"/>
		<path class="st0" d="M109.2,19.4c0,2.6-1.5,5.6-4.1,6.4V26c3.2,0.8,5.6,3,5.6,7c0,6-5,8.8-11.5,8.8H88.6V12.1h9.8
			C104.5,12.1,109.2,13.8,109.2,19.4z M103.4,20.3c0-2.6-1.8-3.6-5.3-3.6h-3.5v7.5H98C101.8,24.2,103.4,22.7,103.4,20.3z
			 M104.9,32.7c0-2.9-2.1-4.1-6.3-4.1h-4.1v8.6h4.1C102.7,37.2,104.9,35.8,104.9,32.7z"/>
		<path class="st0" d="M123.6,27.1c0-9.8,6.3-15.5,13.8-15.5c3.9,0,6.8,1.8,8.7,3.8l-3.1,3.8c-1.5-1.4-3.2-2.5-5.5-2.5
			c-4.5,0-7.9,3.9-7.9,10.2c0,6.5,3.1,10.4,7.7,10.4c2.6,0,4.5-1.2,6.1-2.9l3.1,3.7c-2.4,2.9-5.6,4.4-9.5,4.4
			C129.6,42.4,123.6,37,123.6,27.1z"/>
		<path class="st0" d="M157.3,23.8h11.2V12.1h5.9v29.7h-5.9V29h-11.2v12.8h-5.9V12.1h5.9V23.8z"/>
		<path class="st0" d="M184,41.8h-6l9.5-29.7h7l9.6,29.7h-6.2l-2.1-7.6h-9.6L184,41.8z M190.9,16.6h-0.2c-0.8,3.2-1.6,6.6-2.5,9.7
			l-0.9,3.2h7.1l-0.9-3.2C192.6,23.2,191.9,19.8,190.9,16.6z"/>
		<path class="st0" d="M213.4,41.8h-5.9V12.1h5.9V41.8z"/>
		<path class="st0" d="M235.4,27.9l3,6.4h0.2c-0.3-3.1-0.8-7-0.8-10.4V12.1h5.6v29.7h-6l-8.6-15.9l-3-6.4h-0.2
			c0.3,3.2,0.7,6.9,0.7,10.4v11.9h-5.6V12.1h6.1L235.4,27.9z"/>
	</g>
</g>
</svg>
